<svg xmlns:xlink="http://www.w3.org/1999/xlink" xmlns="http://www.w3.org/2000/svg" xmlns:svg="http://www.w3.org/2000/svg" id="svg1" width="938.72827" height="341.9313" viewBox="0 0 938.72827 341.9313"><defs id="defs1"><clipPath clipPathUnits="userSpaceOnUse" id="clipPath112"><path d="M 0,595.276 H 841.89 V 0 H 0 Z" transform="translate(-201.89293,-410.96391)" id="path112"></path></clipPath><clipPath clipPathUnits="userSpaceOnUse" id="clipPath114"><path d="M 0,595.276 H 841.89 V 0 H 0 Z" transform="translate(-202.17711,-279.4424)" id="path114"></path></clipPath><clipPath clipPathUnits="userSpaceOnUse" id="clipPath116"><path d="M 0,595.276 H 841.89 V 0 H 0 Z" transform="translate(-324.03448,-231.02341)" id="path116"></path></clipPath><clipPath clipPathUnits="userSpaceOnUse" id="clipPath118"><path d="M 0,595.276 H 841.89 V 0 H 0 Z" transform="translate(-264.51793,-257.5244)" id="path118"></path></clipPath><clipPath clipPathUnits="userSpaceOnUse" id="clipPath120"><path d="M 0,595.276 H 841.89 V 0 H 0 Z" transform="translate(2.5000002e-6)" id="path120"></path></clipPath><clipPath clipPathUnits="userSpaceOnUse" id="clipPath122"><path d="M 0,595.276 H 841.89 V 0 H 0 Z" transform="translate(-426.64101,-289.29491)" id="path122"></path></clipPath><clipPath clipPathUnits="userSpaceOnUse" id="clipPath124"><path d="M 0,595.276 H 841.89 V 0 H 0 Z" transform="translate(-520.92809,-279.9893)" id="path124"></path></clipPath><clipPath clipPathUnits="userSpaceOnUse" id="clipPath126"><path d="M 0,595.276 H 841.89 V 0 H 0 Z" transform="translate(-682.54042,-355.93651)" id="path126"></path></clipPath><clipPath clipPathUnits="userSpaceOnUse" id="clipPath128"><path d="M 0,595.276 H 841.89 V 0 H 0 Z" transform="translate(-713.05702,-355.80031)" id="path128"></path></clipPath><clipPath clipPathUnits="userSpaceOnUse" id="clipPath130"><path d="M 0,595.276 H 841.89 V 0 H 0 Z" transform="translate(2.5000002e-6)" id="path130"></path></clipPath><clipPath clipPathUnits="userSpaceOnUse" id="clipPath132"><path d="M 0,595.276 H 841.89 V 0 H 0 Z" transform="translate(-369.05803,-239.81741)" id="path132"></path></clipPath><clipPath clipPathUnits="userSpaceOnUse" id="clipPath134"><path d="M 0,595.276 H 841.89 V 0 H 0 Z" transform="translate(-373.45941,-224.74711)" id="path134"></path></clipPath><clipPath clipPathUnits="userSpaceOnUse" id="clipPath136"><path d="M 0,595.276 H 841.89 V 0 H 0 Z" transform="translate(-383.89693,-239.82911)" id="path136"></path></clipPath><clipPath clipPathUnits="userSpaceOnUse" id="clipPath138"><path d="M 0,595.276 H 841.89 V 0 H 0 Z" transform="translate(2.5000002e-6)" id="path138"></path></clipPath><clipPath clipPathUnits="userSpaceOnUse" id="clipPath140"><path d="M 0,595.276 H 841.89 V 0 H 0 Z" transform="translate(-401.08731,-239.82911)" id="path140"></path></clipPath><clipPath clipPathUnits="userSpaceOnUse" id="clipPath142"><path d="M 0,595.276 H 841.89 V 0 H 0 Z" transform="translate(-413.92131,-239.81741)" id="path142"></path></clipPath><clipPath clipPathUnits="userSpaceOnUse" id="clipPath144"><path d="M 0,595.276 H 841.89 V 0 H 0 Z" transform="translate(-426.61761,-239.82911)" id="path144"></path></clipPath><clipPath clipPathUnits="userSpaceOnUse" id="clipPath146"><path d="M 0,595.276 H 841.89 V 0 H 0 Z" transform="translate(-446.48279,-237.9014)" id="path146"></path></clipPath><clipPath clipPathUnits="userSpaceOnUse" id="clipPath148"><path d="M 0,595.276 H 841.89 V 0 H 0 Z" transform="translate(-461.48384,-238.19531)" id="path148"></path></clipPath><clipPath clipPathUnits="userSpaceOnUse" id="clipPath150"><path d="M 0,595.276 H 841.89 V 0 H 0 Z" transform="translate(-473.30991,-239.81741)" id="path150"></path></clipPath><clipPath clipPathUnits="userSpaceOnUse" id="clipPath152"><path d="M 0,595.276 H 841.89 V 0 H 0 Z" transform="translate(-499.48859,-228.99901)" id="path152"></path></clipPath><clipPath clipPathUnits="userSpaceOnUse" id="clipPath154"><path d="M 0,595.276 H 841.89 V 0 H 0 Z" transform="translate(-508.77974,-238.19531)" id="path154"></path></clipPath><clipPath clipPathUnits="userSpaceOnUse" id="clipPath156"><path d="M 0,595.276 H 841.89 V 0 H 0 Z" transform="translate(-525.12149,-237.9014)" id="path156"></path></clipPath><clipPath clipPathUnits="userSpaceOnUse" id="clipPath158"><path d="M 0,595.276 H 841.89 V 0 H 0 Z" transform="translate(2.5000002e-6)" id="path158"></path></clipPath><clipPath clipPathUnits="userSpaceOnUse" id="clipPath160"><path d="M 0,595.276 H 841.89 V 0 H 0 Z" transform="translate(-544.72109,-237.9014)" id="path160"></path></clipPath><clipPath clipPathUnits="userSpaceOnUse" id="clipPath162"><path d="M 0,595.276 H 841.89 V 0 H 0 Z" transform="translate(-565.44569,-228.99901)" id="path162"></path></clipPath><clipPath clipPathUnits="userSpaceOnUse" id="clipPath164"><path d="M 0,595.276 H 841.89 V 0 H 0 Z" transform="translate(-578.26701,-237.9014)" id="path164"></path></clipPath><clipPath clipPathUnits="userSpaceOnUse" id="clipPath166"><path d="M 0,595.276 H 841.89 V 0 H 0 Z" transform="translate(-593.26791,-238.19531)" id="path166"></path></clipPath><clipPath clipPathUnits="userSpaceOnUse" id="clipPath168"><path d="M 0,595.276 H 841.89 V 0 H 0 Z" transform="translate(-605.09512,-239.81741)" id="path168"></path></clipPath><clipPath clipPathUnits="userSpaceOnUse" id="clipPath170"><path d="M 0,595.276 H 841.89 V 0 H 0 Z" transform="translate(-615.79724,-224.74711)" id="path170"></path></clipPath><clipPath clipPathUnits="userSpaceOnUse" id="clipPath172"><path d="M 0,595.276 H 841.89 V 0 H 0 Z" transform="translate(-628.55114,-239.81741)" id="path172"></path></clipPath><clipPath clipPathUnits="userSpaceOnUse" id="clipPath174"><path d="M 0,595.276 H 841.89 V 0 H 0 Z" transform="translate(-649.84312,-239.81741)" id="path174"></path></clipPath><clipPath clipPathUnits="userSpaceOnUse" id="clipPath176"><path d="M 0,595.276 H 841.89 V 0 H 0 Z" transform="translate(-653.73472,-239.81741)" id="path176"></path></clipPath><clipPath clipPathUnits="userSpaceOnUse" id="clipPath178"><path d="M 0,595.276 H 841.89 V 0 H 0 Z" transform="translate(-675.24449,-237.9014)" id="path178"></path></clipPath><clipPath clipPathUnits="userSpaceOnUse" id="clipPath180"><path d="M 0,595.276 H 841.89 V 0 H 0 Z" transform="translate(-682.06769,-239.81741)" id="path180"></path></clipPath><clipPath clipPathUnits="userSpaceOnUse" id="clipPath182"><path d="M 0,595.276 H 841.89 V 0 H 0 Z" transform="translate(-688.03364,-239.81741)" id="path182"></path></clipPath><clipPath clipPathUnits="userSpaceOnUse" id="clipPath184"><path d="M 0,595.276 H 841.89 V 0 H 0 Z" transform="translate(2.5000002e-6)" id="path184"></path></clipPath><clipPath clipPathUnits="userSpaceOnUse" id="clipPath186"><path d="M 0,595.276 H 841.89 V 0 H 0 Z" transform="translate(-708.48959,-223.41601)" id="path186"></path></clipPath><clipPath clipPathUnits="userSpaceOnUse" id="clipPath188"><path d="M 0,595.276 H 841.89 V 0 H 0 Z" transform="translate(-725.33144,-239.81741)" id="path188"></path></clipPath><clipPath clipPathUnits="userSpaceOnUse" id="clipPath190"><path d="M 0,595.276 H 841.89 V 0 H 0 Z" transform="translate(-746.62342,-239.81741)" id="path190"></path></clipPath><clipPath clipPathUnits="userSpaceOnUse" id="clipPath192"><path d="M 0,595.276 H 841.89 V 0 H 0 Z" transform="translate(-750.74744,-239.82911)" id="path192"></path></clipPath><clipPath clipPathUnits="userSpaceOnUse" id="clipPath194"><path d="M 0,595.276 H 841.89 V 0 H 0 Z" transform="translate(-770.61172,-237.9014)" id="path194"></path></clipPath><clipPath clipPathUnits="userSpaceOnUse" id="clipPath196"><path d="M 0,595.276 H 841.89 V 0 H 0 Z" transform="translate(-482.16539,-216.05371)" id="path196"></path></clipPath><clipPath clipPathUnits="userSpaceOnUse" id="clipPath198"><path d="M 0,595.276 H 841.89 V 0 H 0 Z" transform="translate(-501.28941,-206.8574)" id="path198"></path></clipPath><clipPath clipPathUnits="userSpaceOnUse" id="clipPath200"><path d="M 0,595.276 H 841.89 V 0 H 0 Z" transform="translate(-511.82954,-217.67581)" id="path200"></path></clipPath><clipPath clipPathUnits="userSpaceOnUse" id="clipPath202"><path d="M 0,595.276 H 841.89 V 0 H 0 Z" transform="translate(2.5000002e-6)" id="path202"></path></clipPath><clipPath clipPathUnits="userSpaceOnUse" id="clipPath204"><path d="M 0,595.276 H 841.89 V 0 H 0 Z" transform="translate(-534.09509,-216.05371)" id="path204"></path></clipPath><clipPath clipPathUnits="userSpaceOnUse" id="clipPath206"><path d="M 0,595.276 H 841.89 V 0 H 0 Z" transform="translate(-553.21814,-206.8574)" id="path206"></path></clipPath><clipPath clipPathUnits="userSpaceOnUse" id="clipPath208"><path d="M 0,595.276 H 841.89 V 0 H 0 Z" transform="translate(-565.38021,-217.67581)" id="path208"></path></clipPath><clipPath clipPathUnits="userSpaceOnUse" id="clipPath210"><path d="M 0,595.276 H 841.89 V 0 H 0 Z" transform="translate(-579.51404,-217.67581)" id="path210"></path></clipPath><clipPath clipPathUnits="userSpaceOnUse" id="clipPath212"><path d="M 0,595.276 H 841.89 V 0 H 0 Z" transform="translate(-593.59904,-201.2744)" id="path212"></path></clipPath><clipPath clipPathUnits="userSpaceOnUse" id="clipPath214"><path d="M 0,595.276 H 841.89 V 0 H 0 Z" transform="translate(-617.97014,-206.8574)" id="path214"></path></clipPath><clipPath clipPathUnits="userSpaceOnUse" id="clipPath216"><path d="M 0,595.276 H 841.89 V 0 H 0 Z" transform="translate(-632.77582,-217.67581)" id="path216"></path></clipPath><clipPath clipPathUnits="userSpaceOnUse" id="clipPath218"><path d="M 0,595.276 H 841.89 V 0 H 0 Z" transform="translate(-645.81682,-206.8574)" id="path218"></path></clipPath><clipPath clipPathUnits="userSpaceOnUse" id="clipPath220"><path d="M 0,595.276 H 841.89 V 0 H 0 Z" transform="translate(-144.7211,-315.50541)" id="path220"></path></clipPath></defs><g id="layer-MC0" transform="translate(-907.38195,-245.74947)"><g id="g441"><path id="path111" d="m 0,0 c -26.072,0 -50.251,-8.207 -70.142,-22.138 -2.201,-2.9 -4.806,-7.289 -6.727,-13.534 -0.095,-0.315 -0.174,-0.641 -0.261,-0.961 20.471,18.388 47.513,29.599 77.13,29.599 63.718,0 115.556,-51.838 115.556,-115.556 0,-63.718 -51.838,-115.556 -115.556,-115.556 -63.718,0 -115.556,51.838 -115.556,115.556 0,28.902 10.691,55.339 28.293,75.623 -0.924,2.295 -1.923,4.782 -2.929,7.299 -20.099,-21.844 -32.398,-50.97 -32.398,-82.922 0,-67.596 54.994,-122.59 122.59,-122.59 67.597,0 122.59,54.994 122.59,122.59 C 122.59,-54.994 67.597,0 0,0" style="fill:#cbde88;fill-opacity:1;fill-rule:nonzero;stroke:none" transform="matrix(1.3333333,0,0,-1.3333333,1082.8919,245.74947)" clip-path="url(#clipPath112)"></path><path id="path113" d="m 0,0 c 7.764,0 14.058,7.389 14.058,16.502 0,9.114 -6.294,16.502 -14.058,16.502 -7.764,0 -14.057,-7.388 -14.057,-16.502 C -14.057,7.389 -7.764,0 0,0" style="fill:#79af42;fill-opacity:1;fill-rule:nonzero;stroke:none" transform="matrix(1.3333333,0,0,-1.3333333,1083.2708,421.11147)" clip-path="url(#clipPath114)"></path><path id="path115" d="m 0,0 c -3.748,3.307 -9.48,2.425 -9.48,2.425 0,0 -1.985,-6.835 -14.332,-21.387 -12.347,-14.552 -27.119,-20.063 -27.119,-20.063 -8.06,-2.822 -23.53,-8.526 -56.401,-3.143 0.687,19.664 2.886,52.374 9.922,66.445 10.389,20.781 27.503,29.949 27.503,29.949 0,0 6.112,3.667 5.501,6.111 -0.612,2.445 -3.667,3.667 -8.557,3.056 -4.89,-0.611 -10.39,-3.667 -22.613,-11.613 -12.224,-7.945 -17.725,-13.445 -26.281,-13.445 -0.098,0 -0.189,-0.018 -0.285,-0.023 -0.094,0.005 -0.186,0.023 -0.284,0.023 -8.556,0 -14.056,5.5 -26.28,13.445 -12.224,7.946 -17.725,11.002 -22.614,11.613 -4.889,0.611 -7.946,-0.611 -8.556,-3.056 -0.611,-2.444 5.5,-6.111 5.5,-6.111 0,0 17.113,-9.168 27.503,-29.949 5.982,-11.964 6.948,-37.402 6.693,-56.843 -51.549,21.17 -57.795,53.272 -57.795,53.272 0,0 4.269,-7.103 13.208,-16.175 v 58.783 h -19.268 v 1.205 c 1.164,0.7 2.447,1.257 3.475,2.12 4.669,3.913 9.329,7.836 13.995,11.752 -31.192,21.403 -19.145,56.323 -19.145,56.323 0,0 8.812,26.157 29.128,43.17 -45.585,-21.209 -77.192,-67.41 -77.192,-121 0,-73.67 59.721,-133.392 133.391,-133.392 19.954,0 38.882,4.389 55.878,12.244 l -0.316,-0.558 c 0,0 22.268,11.685 39.466,23.15 17.198,11.466 30.868,31.75 30.868,31.75 0,0 -1.765,6.614 -5.513,9.922" style="fill:#169e49;fill-opacity:1;fill-rule:nonzero;stroke:none" transform="matrix(1.3333333,0,0,-1.3333333,1245.7473,485.67013)" clip-path="url(#clipPath116)"></path><path id="path117" d="m 0,0 v -55.009 c 7.777,2.582 13.033,5.636 16.067,7.771 C 14.823,-33.194 10.705,-16.079 0,0" style="fill:#169e49;fill-opacity:1;fill-rule:nonzero;stroke:none" transform="matrix(1.3333333,0,0,-1.3333333,1166.3919,450.33547)" clip-path="url(#clipPath118)"></path><path id="path119" d="m 353.158,355.8 h 26.959 V 253.168 h -26.959 z" style="fill:#79af42;fill-opacity:1;fill-rule:nonzero;stroke:none" transform="matrix(1.3333333,0,0,-1.3333333,813.70133,793.70133)" clip-path="url(#clipPath120)"></path><path id="path121" d="m 0,0 h 20.937 l -10.4,22.579 z M -43.652,-36.127 4.242,66.505 h 12.18 L 64.726,-36.127 H 37.769 l -6.295,13.411 h -42.011 l -6.157,-13.411 z" style="fill:#79af42;fill-opacity:1;fill-rule:nonzero;stroke:none" transform="matrix(1.3333333,0,0,-1.3333333,1382.556,407.9748)" clip-path="url(#clipPath122)"></path><path id="path123" d="m 0,0 h 11.357 c 13.412,0 24.358,10.946 24.358,24.357 0,13.275 -10.946,24.222 -24.358,24.222 H 0 Z M -26.821,75.811 H 11.22 c 28.326,0 51.316,-22.99 51.316,-51.316 0,-28.326 -22.99,-51.316 -51.316,-51.316 h -38.041 z" style="fill:#169e49;fill-opacity:1;fill-rule:nonzero;stroke:none" transform="matrix(1.3333333,0,0,-1.3333333,1508.2721,420.38227)" clip-path="url(#clipPath124)"></path><path id="path125" d="M 0,0 -47.759,-102.769 H -60.074 L -107.969,0 h 27.096 L -53.916,-58.432 -26.821,0 Z" style="fill:#169e49;fill-opacity:1;fill-rule:nonzero;stroke:none" transform="matrix(1.3333333,0,0,-1.3333333,1723.7552,319.11933)" clip-path="url(#clipPath126)"></path><path id="path127" d="M 0,0 V -36.538 H 32.569 V 0 H 59.526 V -102.632 H 32.569 v 39.136 H 0 v -39.136 H -26.957 V 0 Z" style="fill:#169e49;fill-opacity:1;fill-rule:nonzero;stroke:none" transform="matrix(1.3333333,0,0,-1.3333333,1764.444,319.30093)" clip-path="url(#clipPath128)"></path><path id="path129" d="m 356.339,223.416 h -1.807 v 16.401 h 1.807 z" style="fill:#6d6f71;fill-opacity:1;fill-rule:nonzero;stroke:none" transform="matrix(1.3333333,0,0,-1.3333333,813.70133,793.70133)" clip-path="url(#clipPath130)"></path><path id="path131" d="M 0,0 H 1.808 V -16.401 H -0.011 L -7.205,-3.242 V -16.401 H -9.012 V 0 h 1.82 L 0,-13.159 Z" style="fill:#6d6f71;fill-opacity:1;fill-rule:nonzero;stroke:none" transform="matrix(1.3333333,0,0,-1.3333333,1305.7787,473.9448)" clip-path="url(#clipPath132)"></path><path id="path133" d="M 0,0 0.8,1.461 C 2.398,0.533 3.804,0.069 5.017,0.069 c 0.478,0 0.906,0.069 1.285,0.203 0.379,0.136 0.681,0.31 0.91,0.522 C 7.438,1.007 7.629,1.253 7.778,1.535 7.929,1.816 8.031,2.092 8.086,2.357 8.14,2.624 8.167,2.893 8.167,3.163 8.167,3.78 8.025,4.336 7.744,4.831 7.462,5.325 7.001,5.692 6.36,5.932 6.051,6.047 5.559,6.174 4.883,6.308 4.207,6.442 3.7,6.569 3.359,6.685 2.387,7.031 1.642,7.58 1.124,8.329 0.606,9.077 0.348,9.932 0.348,10.89 c 0,1.234 0.417,2.277 1.251,3.127 0.834,0.849 1.972,1.274 3.418,1.274 1.273,0 2.713,-0.387 4.32,-1.159 L 8.642,12.639 c -1.421,0.686 -2.629,1.03 -3.625,1.03 -0.951,0 -1.665,-0.27 -2.144,-0.811 C 2.395,12.317 2.155,11.662 2.155,10.89 2.155,10.286 2.306,9.742 2.607,9.256 2.907,8.769 3.375,8.418 4.009,8.202 4.294,8.101 4.782,7.982 5.474,7.843 6.165,7.704 6.695,7.564 7.066,7.425 8.031,7.055 8.758,6.493 9.244,5.74 9.73,4.988 9.974,4.129 9.974,3.163 9.974,2.537 9.868,1.945 9.655,1.385 9.442,0.824 9.138,0.324 8.74,-0.115 8.342,-0.556 7.82,-0.905 7.177,-1.163 6.531,-1.423 5.812,-1.551 5.017,-1.551 4.112,-1.551 3.263,-1.412 2.468,-1.135 1.673,-0.856 0.85,-0.479 0,0" style="fill:#6d6f71;fill-opacity:1;fill-rule:nonzero;stroke:none" transform="matrix(1.3333333,0,0,-1.3333333,1311.6472,494.03853)" clip-path="url(#clipPath134)"></path><path id="path135" d="M 0,0 H 10.749 V -1.621 H 6.278 V -16.413 H 4.471 V -1.621 H 0 Z" style="fill:#6d6f71;fill-opacity:1;fill-rule:nonzero;stroke:none" transform="matrix(1.3333333,0,0,-1.3333333,1325.5639,473.9292)" clip-path="url(#clipPath136)"></path><path id="path137" d="m 398.77,223.416 h -1.808 v 16.401 h 1.808 z" style="fill:#6d6f71;fill-opacity:1;fill-rule:nonzero;stroke:none" transform="matrix(1.3333333,0,0,-1.3333333,813.70133,793.70133)" clip-path="url(#clipPath138)"></path><path id="path139" d="M 0,0 H 10.749 V -1.621 H 6.278 V -16.413 H 4.471 V -1.621 H 0 Z" style="fill:#6d6f71;fill-opacity:1;fill-rule:nonzero;stroke:none" transform="matrix(1.3333333,0,0,-1.3333333,1348.4844,473.9292)" clip-path="url(#clipPath140)"></path><path id="path141" d="m 0,0 h 1.808 v -10.437 c 0,-1.126 0.077,-1.917 0.231,-2.374 0.263,-0.764 0.701,-1.321 1.315,-1.668 0.614,-0.348 1.264,-0.522 1.952,-0.522 0.687,0 1.338,0.174 1.952,0.522 0.614,0.347 1.052,0.904 1.314,1.668 0.155,0.457 0.232,1.248 0.232,2.374 V 0 h 1.807 v -10.437 c 0,-0.448 -0.004,-0.79 -0.011,-1.024 -0.009,-0.235 -0.036,-0.525 -0.081,-0.868 -0.047,-0.346 -0.117,-0.66 -0.209,-0.945 -0.255,-0.773 -0.647,-1.415 -1.176,-1.929 -0.529,-0.513 -1.113,-0.879 -1.749,-1.094 -0.637,-0.217 -1.33,-0.324 -2.079,-0.324 -0.75,0 -1.443,0.107 -2.08,0.324 -0.637,0.215 -1.22,0.581 -1.748,1.094 -0.53,0.514 -0.921,1.156 -1.176,1.929 -0.093,0.285 -0.162,0.599 -0.208,0.945 -0.047,0.343 -0.074,0.633 -0.082,0.868 C 0.004,-11.227 0,-10.885 0,-10.437 Z" style="fill:#6d6f71;fill-opacity:1;fill-rule:nonzero;stroke:none" transform="matrix(1.3333333,0,0,-1.3333333,1365.5964,473.9448)" clip-path="url(#clipPath142)"></path><path id="path143" d="M 0,0 H 10.748 V -1.621 H 6.277 V -16.413 H 4.471 V -1.621 H 0 Z" style="fill:#6d6f71;fill-opacity:1;fill-rule:nonzero;stroke:none" transform="matrix(1.3333333,0,0,-1.3333333,1382.5248,473.9292)" clip-path="url(#clipPath144)"></path><path id="path145" d="m 0,0 c -0.564,0.343 -1.255,0.515 -2.074,0.515 -0.819,0 -1.51,-0.172 -2.073,-0.515 -0.564,-0.344 -0.985,-0.821 -1.263,-1.431 -0.194,-0.41 -0.338,-0.921 -0.434,-1.535 -0.097,-0.614 -0.153,-1.139 -0.169,-1.575 -0.014,-0.437 -0.022,-1.018 -0.022,-1.743 0,-0.727 0.008,-1.308 0.022,-1.744 0.016,-0.436 0.072,-0.961 0.169,-1.576 0.096,-0.613 0.24,-1.125 0.434,-1.535 0.278,-0.608 0.699,-1.087 1.263,-1.43 0.563,-0.343 1.254,-0.516 2.073,-0.516 0.819,0 1.51,0.173 2.074,0.516 0.563,0.343 0.984,0.822 1.262,1.43 0.193,0.41 0.338,0.922 0.434,1.535 0.097,0.615 0.153,1.14 0.168,1.576 0.016,0.436 0.024,1.017 0.024,1.744 0,0.725 -0.008,1.306 -0.024,1.743 C 1.849,-4.105 1.793,-3.58 1.696,-2.966 1.6,-2.352 1.455,-1.841 1.262,-1.431 0.984,-0.821 0.563,-0.344 0,0 m -5.167,1.337 c 0.857,0.533 1.889,0.8 3.093,0.8 1.205,0 2.236,-0.267 3.093,-0.8 0.857,-0.533 1.494,-1.25 1.911,-2.153 0.24,-0.51 0.42,-1.121 0.539,-1.831 0.119,-0.711 0.187,-1.298 0.202,-1.76 0.016,-0.464 0.024,-1.089 0.024,-1.877 0,-0.788 -0.008,-1.413 -0.024,-1.877 -0.015,-0.464 -0.083,-1.05 -0.202,-1.76 -0.119,-0.711 -0.299,-1.322 -0.539,-1.831 -0.417,-0.904 -1.054,-1.622 -1.911,-2.154 -0.857,-0.533 -1.888,-0.799 -3.093,-0.799 -1.204,0 -2.236,0.266 -3.093,0.799 -0.856,0.532 -1.494,1.25 -1.911,2.154 -0.239,0.509 -0.419,1.12 -0.538,1.831 -0.12,0.71 -0.188,1.296 -0.203,1.76 -0.016,0.464 -0.024,1.089 -0.024,1.877 0,0.788 0.008,1.413 0.024,1.877 0.015,0.462 0.083,1.049 0.203,1.76 0.119,0.71 0.299,1.321 0.538,1.831 0.417,0.903 1.055,1.62 1.911,2.153" style="fill:#6d6f71;fill-opacity:1;fill-rule:nonzero;stroke:none" transform="matrix(1.3333333,0,0,-1.3333333,1409.0117,476.49947)" clip-path="url(#clipPath146)"></path><path id="path147" d="m 0,0 v -13.159 h 2.352 c 0.393,0 0.704,0.005 0.931,0.013 0.229,0.008 0.51,0.044 0.847,0.109 0.335,0.066 0.611,0.162 0.827,0.285 0.271,0.153 0.51,0.347 0.719,0.579 0.208,0.232 0.381,0.461 0.514,0.689 0.136,0.227 0.25,0.519 0.342,0.875 0.093,0.354 0.162,0.66 0.209,0.915 0.046,0.255 0.081,0.597 0.105,1.03 0.023,0.434 0.036,0.77 0.041,1.015 0.004,0.243 0.005,0.599 0.005,1.071 0,0.472 -0.001,0.827 -0.005,1.071 -0.005,0.243 -0.018,0.581 -0.041,1.013 -0.024,0.433 -0.059,0.777 -0.105,1.032 -0.047,0.254 -0.116,0.56 -0.209,0.914 C 6.44,-2.193 6.326,-1.9 6.19,-1.673 6.057,-1.444 5.884,-1.215 5.676,-0.984 5.467,-0.752 5.228,-0.559 4.957,-0.405 4.741,-0.281 4.465,-0.187 4.13,-0.12 3.793,-0.055 3.512,-0.019 3.283,-0.011 3.056,-0.003 2.745,0 2.352,0 Z m -1.808,1.622 h 4.16 C 3.51,1.622 4.394,1.534 5.004,1.356 5.715,1.147 6.322,0.798 6.828,0.308 7.334,-0.184 7.729,-0.748 8.016,-1.39 8.225,-1.869 8.382,-2.441 8.49,-3.109 8.599,-3.777 8.66,-4.331 8.676,-4.771 8.691,-5.211 8.699,-5.814 8.699,-6.578 8.699,-7.343 8.691,-7.945 8.676,-8.386 8.66,-8.826 8.599,-9.38 8.49,-10.048 8.382,-10.715 8.225,-11.29 8.016,-11.768 7.729,-12.408 7.334,-12.976 6.828,-13.464 6.322,-13.955 5.715,-14.305 5.004,-14.514 4.394,-14.69 3.51,-14.779 2.352,-14.779 h -4.16 z" style="fill:#6d6f71;fill-opacity:1;fill-rule:nonzero;stroke:none" transform="matrix(1.3333333,0,0,-1.3333333,1429.0131,476.1076)" clip-path="url(#clipPath148)"></path><path id="path149" d="M 0,0 H 9.035 V -1.622 H 1.808 V -7.228 H 7.993 V -8.85 H 1.808 v -5.931 h 7.227 v -1.62 H 0 Z" style="fill:#6d6f71;fill-opacity:1;fill-rule:nonzero;stroke:none" transform="matrix(1.3333333,0,0,-1.3333333,1444.7812,473.9448)" clip-path="url(#clipPath150)"></path><path id="path151" d="M 0,0 -2.722,8.375 -5.444,0 Z m -3.591,10.818 h 1.737 L 3.706,-5.583 H 1.818 l -1.286,3.961 h -6.51 l -1.286,-3.961 h -1.887 z" style="fill:#6d6f71;fill-opacity:1;fill-rule:nonzero;stroke:none" transform="matrix(1.3333333,0,0,-1.3333333,1479.6861,488.36933)" clip-path="url(#clipPath152)"></path><path id="path153" d="M 0,0 H -1.691 V -7.182 H 0 c 0.425,0 0.739,0.002 0.943,0.007 0.204,0.003 0.442,0.026 0.712,0.064 0.272,0.039 0.51,0.095 0.719,0.174 0.695,0.254 1.222,0.693 1.581,1.314 0.359,0.622 0.54,1.3 0.54,2.032 0,0.735 -0.181,1.412 -0.54,2.034 -0.359,0.622 -0.886,1.06 -1.581,1.315 -0.209,0.076 -0.447,0.135 -0.719,0.173 -0.27,0.039 -0.508,0.06 -0.712,0.064 C 0.739,-0.001 0.425,0 0,0 m 0,1.622 c 1.119,0 1.942,-0.061 2.468,-0.185 1.196,-0.287 2.135,-0.892 2.813,-1.818 0.681,-0.928 1.02,-1.997 1.02,-3.21 0,-1.212 -0.339,-2.282 -1.02,-3.208 C 4.603,-7.726 3.664,-8.332 2.468,-8.617 1.942,-8.74 1.119,-8.802 0,-8.802 h -1.691 v -5.977 H -3.499 V 1.622 Z" style="fill:#6d6f71;fill-opacity:1;fill-rule:nonzero;stroke:none" transform="matrix(1.3333333,0,0,-1.3333333,1492.0743,476.1076)" clip-path="url(#clipPath154)"></path><path id="path155" d="m 0,0 c -0.563,0.343 -1.255,0.515 -2.073,0.515 -0.819,0 -1.51,-0.172 -2.073,-0.515 -0.564,-0.344 -0.985,-0.821 -1.263,-1.431 -0.194,-0.41 -0.337,-0.921 -0.434,-1.535 -0.096,-0.614 -0.153,-1.139 -0.168,-1.575 -0.015,-0.437 -0.023,-1.018 -0.023,-1.743 0,-0.727 0.008,-1.308 0.023,-1.744 0.015,-0.436 0.072,-0.961 0.168,-1.576 0.097,-0.613 0.24,-1.125 0.434,-1.535 0.278,-0.608 0.699,-1.087 1.263,-1.43 0.563,-0.343 1.254,-0.516 2.073,-0.516 0.818,0 1.51,0.173 2.073,0.516 0.565,0.343 0.986,0.822 1.263,1.43 0.193,0.41 0.339,0.922 0.435,1.535 0.097,0.615 0.152,1.14 0.168,1.576 0.016,0.436 0.022,1.017 0.022,1.744 0,0.725 -0.006,1.306 -0.022,1.743 C 1.85,-4.105 1.795,-3.58 1.698,-2.966 1.602,-2.352 1.456,-1.841 1.263,-1.431 0.986,-0.821 0.565,-0.344 0,0 m -5.165,1.337 c 0.857,0.533 1.888,0.8 3.092,0.8 1.204,0 2.236,-0.267 3.094,-0.8 0.856,-0.533 1.494,-1.25 1.91,-2.153 0.239,-0.51 0.42,-1.121 0.54,-1.831 0.118,-0.711 0.186,-1.298 0.202,-1.76 0.015,-0.464 0.022,-1.089 0.022,-1.877 0,-0.788 -0.007,-1.413 -0.022,-1.877 -0.016,-0.464 -0.084,-1.05 -0.202,-1.76 -0.12,-0.711 -0.301,-1.322 -0.54,-1.831 -0.416,-0.904 -1.054,-1.622 -1.91,-2.154 -0.858,-0.533 -1.89,-0.799 -3.094,-0.799 -1.204,0 -2.235,0.266 -3.092,0.799 -0.858,0.532 -1.494,1.25 -1.912,2.154 -0.239,0.509 -0.419,1.12 -0.538,1.831 -0.12,0.71 -0.187,1.296 -0.202,1.76 -0.017,0.464 -0.025,1.089 -0.025,1.877 0,0.788 0.008,1.413 0.025,1.877 0.015,0.462 0.082,1.049 0.202,1.76 0.119,0.71 0.299,1.321 0.538,1.831 0.418,0.903 1.054,1.62 1.912,2.153" style="fill:#6d6f71;fill-opacity:1;fill-rule:nonzero;stroke:none" transform="matrix(1.3333333,0,0,-1.3333333,1513.8633,476.49947)" clip-path="url(#clipPath156)"></path><path id="path157" d="m 533.753,223.416 h -1.808 v 16.401 h 1.808 z" style="fill:#6d6f71;fill-opacity:1;fill-rule:nonzero;stroke:none" transform="matrix(1.3333333,0,0,-1.3333333,813.70133,793.70133)" clip-path="url(#clipPath158)"></path><path id="path159" d="M 0,0 C -0.562,0.343 -1.255,0.515 -2.072,0.515 -2.891,0.515 -3.582,0.343 -4.146,0 -4.709,-0.344 -5.13,-0.821 -5.409,-1.431 -5.602,-1.841 -5.746,-2.352 -5.843,-2.966 -5.938,-3.58 -5.996,-4.105 -6.01,-4.541 c -0.016,-0.437 -0.024,-1.018 -0.024,-1.743 0,-0.727 0.008,-1.308 0.024,-1.744 0.014,-0.436 0.072,-0.961 0.167,-1.576 0.097,-0.613 0.241,-1.125 0.434,-1.535 0.279,-0.608 0.7,-1.087 1.263,-1.43 0.564,-0.343 1.255,-0.516 2.074,-0.516 0.817,0 1.51,0.173 2.072,0.516 0.565,0.343 0.986,0.822 1.264,1.43 0.192,0.41 0.338,0.922 0.434,1.535 0.097,0.615 0.153,1.14 0.168,1.576 0.016,0.436 0.023,1.017 0.023,1.744 0,0.725 -0.007,1.306 -0.023,1.743 C 1.851,-4.105 1.795,-3.58 1.698,-2.966 1.602,-2.352 1.456,-1.841 1.264,-1.431 0.986,-0.821 0.565,-0.344 0,0 m -5.165,1.337 c 0.857,0.533 1.888,0.8 3.093,0.8 1.204,0 2.235,-0.267 3.093,-0.8 0.856,-0.533 1.495,-1.25 1.911,-2.153 0.238,-0.51 0.419,-1.121 0.539,-1.831 0.119,-0.711 0.187,-1.298 0.203,-1.76 0.014,-0.464 0.021,-1.089 0.021,-1.877 0,-0.788 -0.007,-1.413 -0.021,-1.877 -0.016,-0.464 -0.084,-1.05 -0.203,-1.76 -0.12,-0.711 -0.301,-1.322 -0.539,-1.831 -0.416,-0.904 -1.055,-1.622 -1.911,-2.154 -0.858,-0.533 -1.889,-0.799 -3.093,-0.799 -1.205,0 -2.236,0.266 -3.093,0.799 -0.857,0.532 -1.494,1.25 -1.912,2.154 -0.238,0.509 -0.419,1.12 -0.538,1.831 -0.12,0.71 -0.187,1.296 -0.202,1.76 -0.016,0.464 -0.024,1.089 -0.024,1.877 0,0.788 0.008,1.413 0.024,1.877 0.015,0.462 0.082,1.049 0.202,1.76 0.119,0.71 0.3,1.321 0.538,1.831 0.418,0.903 1.055,1.62 1.912,2.153" style="fill:#6d6f71;fill-opacity:1;fill-rule:nonzero;stroke:none" transform="matrix(1.3333333,0,0,-1.3333333,1539.9961,476.49947)" clip-path="url(#clipPath160)"></path><path id="path161" d="M 0,0 -2.723,8.375 -5.444,0 Z m -3.592,10.818 h 1.738 L 3.706,-5.583 H 1.818 l -1.287,3.961 h -6.509 l -1.287,-3.961 h -1.887 z" style="fill:#6d6f71;fill-opacity:1;fill-rule:nonzero;stroke:none" transform="matrix(1.3333333,0,0,-1.3333333,1567.6289,488.36933)" clip-path="url(#clipPath162)"></path><path id="path163" d="m 0,0 c -0.563,0.343 -1.255,0.515 -2.073,0.515 -0.819,0 -1.51,-0.172 -2.073,-0.515 -0.564,-0.344 -0.985,-0.821 -1.263,-1.431 -0.194,-0.41 -0.337,-0.921 -0.434,-1.535 -0.096,-0.614 -0.153,-1.139 -0.168,-1.575 -0.015,-0.437 -0.023,-1.018 -0.023,-1.743 0,-0.727 0.008,-1.308 0.023,-1.744 0.015,-0.436 0.072,-0.961 0.168,-1.576 0.097,-0.613 0.24,-1.125 0.434,-1.535 0.278,-0.608 0.699,-1.087 1.263,-1.43 0.563,-0.343 1.254,-0.516 2.073,-0.516 0.818,0 1.51,0.173 2.073,0.516 0.565,0.343 0.986,0.822 1.263,1.43 0.193,0.41 0.339,0.922 0.435,1.535 0.097,0.615 0.153,1.14 0.168,1.576 0.016,0.436 0.022,1.017 0.022,1.744 0,0.725 -0.006,1.306 -0.022,1.743 C 1.851,-4.105 1.795,-3.58 1.698,-2.966 1.602,-2.352 1.456,-1.841 1.263,-1.431 0.986,-0.821 0.565,-0.344 0,0 m -5.165,1.337 c 0.857,0.533 1.888,0.8 3.092,0.8 1.204,0 2.236,-0.267 3.094,-0.8 0.856,-0.533 1.494,-1.25 1.91,-2.153 0.239,-0.51 0.42,-1.121 0.54,-1.831 0.119,-0.711 0.186,-1.298 0.202,-1.76 0.015,-0.464 0.022,-1.089 0.022,-1.877 0,-0.788 -0.007,-1.413 -0.022,-1.877 -0.016,-0.464 -0.083,-1.05 -0.202,-1.76 -0.12,-0.711 -0.301,-1.322 -0.54,-1.831 -0.416,-0.904 -1.054,-1.622 -1.91,-2.154 -0.858,-0.533 -1.89,-0.799 -3.094,-0.799 -1.204,0 -2.235,0.266 -3.092,0.799 -0.858,0.532 -1.494,1.25 -1.912,2.154 -0.239,0.509 -0.419,1.12 -0.538,1.831 -0.12,0.71 -0.187,1.296 -0.202,1.76 -0.017,0.464 -0.025,1.089 -0.025,1.877 0,0.788 0.008,1.413 0.025,1.877 0.015,0.462 0.082,1.049 0.202,1.76 0.119,0.71 0.299,1.321 0.538,1.831 0.418,0.903 1.054,1.62 1.912,2.153" style="fill:#6d6f71;fill-opacity:1;fill-rule:nonzero;stroke:none" transform="matrix(1.3333333,0,0,-1.3333333,1584.724,476.49947)" clip-path="url(#clipPath164)"></path><path id="path165" d="m 0,0 v -13.159 h 2.352 c 0.394,0 0.705,0.005 0.932,0.013 0.228,0.008 0.51,0.044 0.845,0.109 0.337,0.066 0.612,0.162 0.829,0.285 0.27,0.153 0.51,0.347 0.718,0.579 0.208,0.232 0.381,0.461 0.515,0.689 0.136,0.227 0.25,0.519 0.342,0.875 0.094,0.354 0.163,0.66 0.209,0.915 0.046,0.255 0.08,0.597 0.105,1.03 0.021,0.434 0.036,0.77 0.039,1.015 0.005,0.243 0.007,0.599 0.007,1.071 0,0.472 -0.002,0.827 -0.007,1.071 -0.003,0.243 -0.018,0.581 -0.039,1.013 -0.025,0.433 -0.059,0.777 -0.105,1.032 -0.046,0.254 -0.115,0.56 -0.209,0.914 C 6.441,-2.193 6.327,-1.9 6.191,-1.673 6.057,-1.444 5.884,-1.215 5.676,-0.984 5.468,-0.752 5.228,-0.559 4.958,-0.405 4.741,-0.281 4.466,-0.187 4.129,-0.12 3.794,-0.055 3.512,-0.019 3.284,-0.011 3.057,-0.003 2.746,0 2.352,0 Z m -1.807,1.622 h 4.159 c 1.159,0 2.042,-0.088 2.652,-0.266 0.711,-0.209 1.318,-0.558 1.825,-1.048 0.505,-0.492 0.9,-1.056 1.187,-1.698 0.209,-0.479 0.367,-1.051 0.475,-1.719 0.108,-0.668 0.169,-1.222 0.185,-1.662 0.015,-0.44 0.023,-1.043 0.023,-1.807 0,-0.765 -0.008,-1.367 -0.023,-1.808 -0.016,-0.44 -0.077,-0.994 -0.185,-1.662 -0.108,-0.667 -0.266,-1.242 -0.475,-1.72 -0.287,-0.64 -0.682,-1.208 -1.187,-1.696 -0.507,-0.491 -1.114,-0.841 -1.825,-1.05 -0.61,-0.176 -1.493,-0.265 -2.652,-0.265 h -4.159 z" style="fill:#6d6f71;fill-opacity:1;fill-rule:nonzero;stroke:none" transform="matrix(1.3333333,0,0,-1.3333333,1604.7252,476.1076)" clip-path="url(#clipPath166)"></path><path id="path167" d="M 0,0 H 9.034 V -1.622 H 1.807 V -7.228 H 7.993 V -8.85 H 1.807 v -5.931 h 7.227 v -1.62 H 0 Z" style="fill:#6d6f71;fill-opacity:1;fill-rule:nonzero;stroke:none" transform="matrix(1.3333333,0,0,-1.3333333,1620.4948,473.9448)" clip-path="url(#clipPath168)"></path><path id="path169" d="M 0,0 0.8,1.461 C 2.399,0.533 3.805,0.069 5.017,0.069 c 0.478,0 0.907,0.069 1.285,0.203 0.379,0.136 0.682,0.31 0.91,0.522 C 7.44,1.007 7.628,1.253 7.778,1.535 7.931,1.816 8.032,2.092 8.086,2.357 8.141,2.624 8.168,2.893 8.168,3.163 8.168,3.78 8.027,4.336 7.745,4.831 7.462,5.325 7.002,5.692 6.36,5.932 6.052,6.047 5.56,6.174 4.884,6.308 4.208,6.442 3.7,6.569 3.36,6.685 2.387,7.031 1.642,7.58 1.124,8.329 0.606,9.077 0.349,9.932 0.349,10.89 c 0,1.234 0.418,2.277 1.252,3.127 0.834,0.849 1.971,1.274 3.416,1.274 1.274,0 2.714,-0.387 4.321,-1.159 L 8.643,12.639 c -1.421,0.686 -2.63,1.03 -3.626,1.03 -0.95,0 -1.664,-0.27 -2.143,-0.811 C 2.395,12.317 2.156,11.662 2.156,10.89 2.156,10.286 2.306,9.742 2.606,9.256 2.909,8.769 3.376,8.418 4.009,8.202 4.294,8.101 4.783,7.982 5.475,7.843 6.166,7.704 6.696,7.564 7.066,7.425 8.032,7.055 8.758,6.493 9.244,5.74 9.731,4.988 9.976,4.129 9.976,3.163 9.976,2.537 9.867,1.945 9.655,1.385 9.443,0.824 9.138,0.324 8.741,-0.115 8.344,-0.556 7.821,-0.905 7.178,-1.163 6.531,-1.423 5.812,-1.551 5.017,-1.551 4.113,-1.551 3.264,-1.412 2.468,-1.135 1.673,-0.856 0.851,-0.479 0,0" style="fill:#6d6f71;fill-opacity:1;fill-rule:nonzero;stroke:none" transform="matrix(1.3333333,0,0,-1.3333333,1634.7643,494.03853)" clip-path="url(#clipPath170)"></path><path id="path171" d="M 0,0 H 9.035 V -1.622 H 1.808 V -7.228 H 7.994 V -8.85 H 1.808 v -5.931 h 7.227 v -1.62 H 0 Z" style="fill:#6d6f71;fill-opacity:1;fill-rule:nonzero;stroke:none" transform="matrix(1.3333333,0,0,-1.3333333,1651.7695,473.9448)" clip-path="url(#clipPath172)"></path><path id="path173" d="M 0,0 H 1.808 V -16.401 H -0.013 L -7.205,-3.242 V -16.401 H -9.013 V 0 h 1.819 L 0,-13.159 Z" style="fill:#6d6f71;fill-opacity:1;fill-rule:nonzero;stroke:none" transform="matrix(1.3333333,0,0,-1.3333333,1680.1588,473.9448)" clip-path="url(#clipPath174)"></path><path id="path175" d="M 0,0 H 1.888 L 6.43,-13.958 10.971,0 h 1.887 L 7.299,-16.401 H 5.562 Z" style="fill:#6d6f71;fill-opacity:1;fill-rule:nonzero;stroke:none" transform="matrix(1.3333333,0,0,-1.3333333,1685.3476,473.9448)" clip-path="url(#clipPath176)"></path><path id="path177" d="M 0,0 C -0.562,0.343 -1.255,0.515 -2.072,0.515 -2.891,0.515 -3.582,0.343 -4.146,0 -4.709,-0.344 -5.13,-0.821 -5.409,-1.431 -5.602,-1.841 -5.746,-2.352 -5.843,-2.966 -5.938,-3.58 -5.996,-4.105 -6.01,-4.541 c -0.016,-0.437 -0.024,-1.018 -0.024,-1.743 0,-0.727 0.008,-1.308 0.024,-1.744 0.014,-0.436 0.072,-0.961 0.167,-1.576 0.097,-0.613 0.241,-1.125 0.434,-1.535 0.279,-0.608 0.7,-1.087 1.263,-1.43 0.564,-0.343 1.255,-0.516 2.074,-0.516 0.817,0 1.51,0.173 2.072,0.516 0.565,0.343 0.986,0.822 1.264,1.43 0.192,0.41 0.338,0.922 0.434,1.535 0.097,0.615 0.153,1.14 0.168,1.576 0.016,0.436 0.023,1.017 0.023,1.744 0,0.725 -0.007,1.306 -0.023,1.743 C 1.851,-4.105 1.795,-3.58 1.698,-2.966 1.602,-2.352 1.456,-1.841 1.264,-1.431 0.986,-0.821 0.565,-0.344 0,0 m -5.165,1.337 c 0.857,0.533 1.888,0.8 3.093,0.8 1.204,0 2.235,-0.267 3.093,-0.8 0.856,-0.533 1.494,-1.25 1.911,-2.153 0.238,-0.51 0.419,-1.121 0.539,-1.831 0.119,-0.711 0.187,-1.298 0.203,-1.76 0.014,-0.464 0.021,-1.089 0.021,-1.877 0,-0.788 -0.007,-1.413 -0.021,-1.877 -0.016,-0.464 -0.084,-1.05 -0.203,-1.76 -0.12,-0.711 -0.301,-1.322 -0.539,-1.831 -0.417,-0.904 -1.055,-1.622 -1.911,-2.154 -0.858,-0.533 -1.889,-0.799 -3.093,-0.799 -1.205,0 -2.236,0.266 -3.093,0.799 -0.857,0.532 -1.494,1.25 -1.912,2.154 -0.238,0.509 -0.419,1.12 -0.538,1.831 -0.12,0.71 -0.187,1.296 -0.202,1.76 -0.016,0.464 -0.024,1.089 -0.024,1.877 0,0.788 0.008,1.413 0.024,1.877 0.015,0.462 0.082,1.049 0.202,1.76 0.119,0.71 0.3,1.321 0.538,1.831 0.418,0.903 1.055,1.62 1.912,2.153" style="fill:#6d6f71;fill-opacity:1;fill-rule:nonzero;stroke:none" transform="matrix(1.3333333,0,0,-1.3333333,1714.0273,476.49947)" clip-path="url(#clipPath178)"></path><path id="path179" d="M 0,0 H 1.807 V -14.781 H 8.34 v -1.62 H 0 Z" style="fill:#6d6f71;fill-opacity:1;fill-rule:nonzero;stroke:none" transform="matrix(1.3333333,0,0,-1.3333333,1723.1249,473.9448)" clip-path="url(#clipPath180)"></path><path id="path181" d="M 0,0 H 1.888 L 6.43,-13.958 10.971,0 h 1.887 L 7.299,-16.401 H 5.562 Z" style="fill:#6d6f71;fill-opacity:1;fill-rule:nonzero;stroke:none" transform="matrix(1.3333333,0,0,-1.3333333,1731.0795,473.9448)" clip-path="url(#clipPath182)"></path><path id="path183" d="m 704.784,223.416 h -1.808 v 16.401 h 1.808 z" style="fill:#6d6f71;fill-opacity:1;fill-rule:nonzero;stroke:none" transform="matrix(1.3333333,0,0,-1.3333333,813.70133,793.70133)" clip-path="url(#clipPath184)"></path><path id="path185" d="m 0,0 v 16.401 h 1.808 l 4.759,-9.717 4.763,9.717 h 1.806 V 0 H 11.33 V 12.996 L 7.391,4.876 H 5.746 l -3.938,8.12 V 0 Z" style="fill:#6d6f71;fill-opacity:1;fill-rule:nonzero;stroke:none" transform="matrix(1.3333333,0,0,-1.3333333,1758.3541,495.81333)" clip-path="url(#clipPath186)"></path><path id="path187" d="M 0,0 H 9.035 V -1.622 H 1.808 V -7.228 H 7.993 V -8.85 H 1.808 v -5.931 h 7.227 v -1.62 H 0 Z" style="fill:#6d6f71;fill-opacity:1;fill-rule:nonzero;stroke:none" transform="matrix(1.3333333,0,0,-1.3333333,1780.8099,473.9448)" clip-path="url(#clipPath188)"></path><path id="path189" d="m 0,0 h 1.807 v -16.401 h -1.82 L -7.206,-3.242 V -16.401 H -9.013 V 0 h 1.819 L 0,-13.159 Z" style="fill:#6d6f71;fill-opacity:1;fill-rule:nonzero;stroke:none" transform="matrix(1.3333333,0,0,-1.3333333,1809.1992,473.9448)" clip-path="url(#clipPath190)"></path><path id="path191" d="M 0,0 H 10.749 V -1.621 H 6.278 V -16.413 H 4.471 V -1.621 H 0 Z" style="fill:#6d6f71;fill-opacity:1;fill-rule:nonzero;stroke:none" transform="matrix(1.3333333,0,0,-1.3333333,1814.6979,473.9292)" clip-path="url(#clipPath192)"></path><path id="path193" d="m 0,0 c -0.563,0.343 -1.255,0.515 -2.073,0.515 -0.819,0 -1.51,-0.172 -2.073,-0.515 -0.564,-0.344 -0.985,-0.821 -1.263,-1.431 -0.194,-0.41 -0.337,-0.921 -0.434,-1.535 -0.096,-0.614 -0.153,-1.139 -0.168,-1.575 -0.015,-0.437 -0.023,-1.018 -0.023,-1.743 0,-0.727 0.008,-1.308 0.023,-1.744 0.015,-0.436 0.072,-0.961 0.168,-1.576 0.097,-0.613 0.24,-1.125 0.434,-1.535 0.278,-0.608 0.699,-1.087 1.263,-1.43 0.563,-0.343 1.254,-0.516 2.073,-0.516 0.818,0 1.51,0.173 2.073,0.516 0.565,0.343 0.986,0.822 1.263,1.43 0.193,0.41 0.339,0.922 0.435,1.535 0.097,0.615 0.152,1.14 0.168,1.576 0.016,0.436 0.022,1.017 0.022,1.744 0,0.725 -0.006,1.306 -0.022,1.743 C 1.85,-4.105 1.795,-3.58 1.698,-2.966 1.602,-2.352 1.456,-1.841 1.263,-1.431 0.986,-0.821 0.565,-0.344 0,0 m -5.165,1.337 c 0.857,0.533 1.888,0.8 3.092,0.8 1.204,0 2.236,-0.267 3.094,-0.8 0.856,-0.533 1.494,-1.25 1.91,-2.153 0.239,-0.51 0.42,-1.121 0.54,-1.831 0.118,-0.711 0.186,-1.298 0.202,-1.76 0.015,-0.464 0.022,-1.089 0.022,-1.877 0,-0.788 -0.007,-1.413 -0.022,-1.877 -0.016,-0.464 -0.084,-1.05 -0.202,-1.76 -0.12,-0.711 -0.301,-1.322 -0.54,-1.831 -0.416,-0.904 -1.054,-1.622 -1.91,-2.154 -0.858,-0.533 -1.89,-0.799 -3.094,-0.799 -1.204,0 -2.235,0.266 -3.092,0.799 -0.858,0.532 -1.494,1.25 -1.912,2.154 -0.239,0.509 -0.419,1.12 -0.538,1.831 -0.12,0.71 -0.187,1.296 -0.202,1.76 -0.017,0.464 -0.025,1.089 -0.025,1.877 0,0.788 0.008,1.413 0.025,1.877 0.015,0.462 0.082,1.049 0.202,1.76 0.119,0.71 0.299,1.321 0.538,1.831 0.418,0.903 1.054,1.62 1.912,2.153" style="fill:#6d6f71;fill-opacity:1;fill-rule:nonzero;stroke:none" transform="matrix(1.3333333,0,0,-1.3333333,1841.1836,476.49947)" clip-path="url(#clipPath194)"></path><path id="path195" d="m 0,0 v -13.159 h 2.351 c 0.395,0 0.706,0.005 0.933,0.013 0.229,0.007 0.51,0.044 0.846,0.109 0.335,0.066 0.61,0.161 0.829,0.285 0.269,0.153 0.51,0.347 0.715,0.579 0.209,0.232 0.383,0.461 0.516,0.689 0.136,0.227 0.25,0.518 0.342,0.875 0.095,0.354 0.164,0.66 0.209,0.915 0.047,0.255 0.082,0.597 0.104,1.03 0.022,0.434 0.038,0.77 0.042,1.015 0.003,0.243 0.006,0.599 0.006,1.071 0,0.472 -0.003,0.827 -0.006,1.071 -0.004,0.243 -0.02,0.58 -0.042,1.013 C 6.823,-4.061 6.788,-3.717 6.741,-3.463 6.696,-3.208 6.627,-2.902 6.532,-2.548 6.44,-2.193 6.326,-1.9 6.19,-1.673 6.057,-1.444 5.883,-1.215 5.674,-0.984 5.469,-0.752 5.228,-0.559 4.959,-0.405 4.74,-0.281 4.465,-0.187 4.13,-0.12 3.794,-0.055 3.513,-0.019 3.284,-0.011 3.057,-0.003 2.746,0 2.351,0 Z M -1.808,1.622 H 2.351 C 3.509,1.622 4.393,1.534 5.003,1.356 5.715,1.147 6.323,0.798 6.829,0.308 7.333,-0.184 7.729,-0.748 8.017,-1.39 8.226,-1.869 8.384,-2.441 8.491,-3.109 8.599,-3.777 8.659,-4.331 8.675,-4.771 8.69,-5.211 8.7,-5.814 8.7,-6.578 8.7,-7.343 8.69,-7.946 8.675,-8.386 8.659,-8.826 8.599,-9.38 8.491,-10.048 c -0.107,-0.667 -0.265,-1.242 -0.474,-1.72 -0.288,-0.64 -0.684,-1.208 -1.188,-1.696 -0.506,-0.491 -1.114,-0.841 -1.826,-1.05 -0.61,-0.176 -1.494,-0.265 -2.652,-0.265 h -4.159 z" style="fill:#6d6f71;fill-opacity:1;fill-rule:nonzero;stroke:none" transform="matrix(1.3333333,0,0,-1.3333333,1456.5885,505.62973)" clip-path="url(#clipPath196)"></path><path id="path197" d="M 0,0 -2.722,8.375 -5.443,0 Z m -3.591,10.818 h 1.738 L 3.707,-5.583 H 1.818 l -1.286,3.961 h -6.51 l -1.286,-3.961 h -1.887 z" style="fill:#6d6f71;fill-opacity:1;fill-rule:nonzero;stroke:none" transform="matrix(1.3333333,0,0,-1.3333333,1482.0872,517.89147)" clip-path="url(#clipPath198)"></path><path id="path199" d="M 0,0 H 1.888 L 6.43,-13.958 10.971,0 h 1.887 L 7.299,-16.401 H 5.562 Z" style="fill:#6d6f71;fill-opacity:1;fill-rule:nonzero;stroke:none" transform="matrix(1.3333333,0,0,-1.3333333,1496.1407,503.46693)" clip-path="url(#clipPath200)"></path><path id="path201" d="m 528.581,201.274 h -1.808 v 16.401 h 1.808 z" style="fill:#6d6f71;fill-opacity:1;fill-rule:nonzero;stroke:none" transform="matrix(1.3333333,0,0,-1.3333333,813.70133,793.70133)" clip-path="url(#clipPath202)"></path><path id="path203" d="m 0,0 v -13.159 h 2.352 c 0.393,0 0.704,0.005 0.931,0.013 0.229,0.007 0.51,0.044 0.846,0.109 0.337,0.066 0.612,0.161 0.829,0.285 0.269,0.153 0.51,0.347 0.717,0.579 0.209,0.232 0.381,0.461 0.515,0.689 0.136,0.227 0.25,0.518 0.342,0.875 0.094,0.354 0.163,0.66 0.209,0.915 0.046,0.255 0.081,0.597 0.105,1.03 0.022,0.434 0.036,0.77 0.04,1.015 0.004,0.243 0.006,0.599 0.006,1.071 0,0.472 -0.002,0.827 -0.006,1.071 -0.004,0.243 -0.018,0.58 -0.04,1.013 C 6.822,-4.061 6.787,-3.717 6.741,-3.463 6.695,-3.208 6.626,-2.902 6.532,-2.548 6.44,-2.193 6.326,-1.9 6.19,-1.673 6.056,-1.444 5.884,-1.215 5.675,-0.984 5.468,-0.752 5.227,-0.559 4.958,-0.405 4.741,-0.281 4.466,-0.187 4.129,-0.12 3.793,-0.055 3.512,-0.019 3.283,-0.011 3.056,-0.003 2.745,0 2.352,0 Z m -1.808,1.622 h 4.16 C 3.51,1.622 4.393,1.534 5.004,1.356 5.714,1.147 6.322,0.798 6.828,0.308 7.333,-0.184 7.729,-0.748 8.016,-1.39 8.225,-1.869 8.383,-2.441 8.49,-3.109 8.598,-3.777 8.659,-4.331 8.675,-4.771 8.691,-5.211 8.699,-5.814 8.699,-6.578 8.699,-7.343 8.691,-7.946 8.675,-8.386 8.659,-8.826 8.598,-9.38 8.49,-10.048 8.383,-10.715 8.225,-11.29 8.016,-11.768 7.729,-12.408 7.333,-12.976 6.828,-13.464 6.322,-13.955 5.714,-14.305 5.004,-14.514 4.393,-14.69 3.51,-14.779 2.352,-14.779 h -4.16 z" style="fill:#6d6f71;fill-opacity:1;fill-rule:nonzero;stroke:none" transform="matrix(1.3333333,0,0,-1.3333333,1525.8281,505.62973)" clip-path="url(#clipPath204)"></path><path id="path205" d="M 0,0 -2.722,8.375 -5.443,0 Z m -3.591,10.818 h 1.738 L 3.707,-5.583 H 1.818 l -1.286,3.961 h -6.51 l -1.286,-3.961 h -1.887 z" style="fill:#6d6f71;fill-opacity:1;fill-rule:nonzero;stroke:none" transform="matrix(1.3333333,0,0,-1.3333333,1551.3255,517.89147)" clip-path="url(#clipPath206)"></path><path id="path207" d="M 0,0 H 1.808 V -7.228 H 8.85 V 0 h 1.807 V -16.401 H 8.85 V -8.85 H 1.808 v -7.551 H 0 Z" style="fill:#6d6f71;fill-opacity:1;fill-rule:nonzero;stroke:none" transform="matrix(1.3333333,0,0,-1.3333333,1567.5416,503.46693)" clip-path="url(#clipPath208)"></path><path id="path209" d="m 0,0 h 1.808 v -10.437 c 0,-1.126 0.076,-1.917 0.23,-2.374 0.263,-0.764 0.701,-1.321 1.316,-1.668 0.614,-0.348 1.264,-0.522 1.951,-0.522 0.687,0 1.338,0.174 1.951,0.522 0.614,0.347 1.053,0.904 1.315,1.668 0.156,0.457 0.233,1.248 0.233,2.374 V 0 h 1.805 v -10.437 c 0,-0.448 -0.003,-0.79 -0.01,-1.024 -0.008,-0.235 -0.036,-0.525 -0.081,-0.868 -0.046,-0.346 -0.116,-0.66 -0.209,-0.945 -0.255,-0.773 -0.647,-1.415 -1.176,-1.929 -0.529,-0.513 -1.112,-0.879 -1.748,-1.094 -0.638,-0.217 -1.331,-0.324 -2.08,-0.324 -0.748,0 -1.442,0.107 -2.079,0.324 -0.637,0.215 -1.221,0.581 -1.749,1.094 -0.529,0.514 -0.921,1.156 -1.176,1.929 -0.094,0.285 -0.161,0.599 -0.209,0.945 -0.046,0.343 -0.072,0.633 -0.081,0.868 C 0.003,-11.227 0,-10.885 0,-10.437 Z" style="fill:#6d6f71;fill-opacity:1;fill-rule:nonzero;stroke:none" transform="matrix(1.3333333,0,0,-1.3333333,1586.3867,503.46693)" clip-path="url(#clipPath210)"></path><path id="path211" d="m 0,0 v 16.401 h 1.808 l 4.759,-9.717 4.762,9.717 h 1.806 V 0 H 11.329 V 12.996 L 7.391,4.876 H 5.746 l -3.938,8.12 V 0 Z" style="fill:#6d6f71;fill-opacity:1;fill-rule:nonzero;stroke:none" transform="matrix(1.3333333,0,0,-1.3333333,1605.1667,525.33547)" clip-path="url(#clipPath212)"></path><path id="path213" d="M 0,0 -2.722,8.375 -5.443,0 Z m -3.591,10.818 h 1.738 L 3.707,-5.583 H 1.818 l -1.286,3.961 h -6.509 l -1.287,-3.961 h -1.887 z" style="fill:#6d6f71;fill-opacity:1;fill-rule:nonzero;stroke:none" transform="matrix(1.3333333,0,0,-1.3333333,1637.6615,517.89147)" clip-path="url(#clipPath214)"></path><path id="path215" d="m 0,0 h 1.807 v -16.401 h -1.82 L -7.206,-3.242 V -16.401 H -9.013 V 0 h 1.819 L 0,-13.159 Z" style="fill:#6d6f71;fill-opacity:1;fill-rule:nonzero;stroke:none" transform="matrix(1.3333333,0,0,-1.3333333,1657.4024,503.46693)" clip-path="url(#clipPath216)"></path><path id="path217" d="M 0,0 -2.722,8.375 -5.443,0 Z m -3.591,10.818 h 1.738 L 3.707,-5.583 H 1.818 l -1.286,3.961 h -6.509 l -1.287,-3.961 h -1.887 z" style="fill:#6d6f71;fill-opacity:1;fill-rule:nonzero;stroke:none" transform="matrix(1.3333333,0,0,-1.3333333,1674.7904,517.89147)" clip-path="url(#clipPath218)"></path><path id="path219" d="m 0,0 c 13.322,11.19 26.644,22.379 39.968,33.566 6.217,5.22 12.474,10.391 18.758,15.62 15.353,-13.822 30.032,-27.134 44.823,-40.32 11.768,-10.492 23.673,-20.831 35.517,-31.238 v -2.409 h -19.269 v -13.496 c 2.273,-2.04 4.541,-4.263 6.801,-6.715 12.012,-13.035 19.412,-27.509 23.877,-41.476 10.594,16.911 16.726,36.904 16.726,58.332 0,60.767 -49.262,110.029 -110.029,110.029 -31.251,0 -59.457,-13.03 -79.487,-33.952 C -22.62,34.106 -19.012,14.529 0,0" style="fill:#79af42;fill-opacity:1;fill-rule:nonzero;stroke:none" transform="matrix(1.3333333,0,0,-1.3333333,1006.6628,373.02747)" clip-path="url(#clipPath220)"></path></g></g></svg>